<mxfile modified="2022-07-06T14:48:54.619Z" host="app.diagrams.net" agent="5.0 (Windows NT 10.0; Win64; x64) AppleWebKit/537.36 (KHTML, like Gecko) Chrome/103.0.0.0 Safari/537.36" etag="XQLv3cN1_QI7wm_84DAl" version="20.0.1" type="github">
  <diagram id="f106602c-feb2-e66a-4537-3a34d633f6aa" name="Page-1">
    <mxGraphModel dx="1038" dy="579" grid="0" gridSize="10" guides="1" tooltips="1" connect="1" arrows="1" fold="1" page="1" pageScale="1" pageWidth="1169" pageHeight="827" background="none" math="0" shadow="0">
      <root>
        <mxCell id="0" />
        <mxCell id="1" parent="0" />
        <mxCell id="16" value="" style="rounded=1;absoluteArcSize=1;arcSize=2;html=1;strokeColor=none;gradientColor=none;shadow=0;dashed=0;strokeColor=none;fontSize=12;fontColor=#9E9E9E;align=left;verticalAlign=top;spacing=10;spacingTop=-4;fillColor=#E0E0E0;" parent="1" vertex="1">
          <mxGeometry x="34.5" y="740" width="1100" height="30" as="geometry" />
        </mxCell>
        <mxCell id="-bmkmWvGNsPvscFq14zv-419" style="edgeStyle=orthogonalEdgeStyle;rounded=0;orthogonalLoop=1;jettySize=auto;html=1;entryX=0;entryY=0.5;entryDx=0;entryDy=0;fontSize=19;" edge="1" parent="1" source="392" target="-bmkmWvGNsPvscFq14zv-416">
          <mxGeometry relative="1" as="geometry" />
        </mxCell>
        <mxCell id="-bmkmWvGNsPvscFq14zv-420" style="edgeStyle=orthogonalEdgeStyle;rounded=0;orthogonalLoop=1;jettySize=auto;html=1;entryX=0.5;entryY=0;entryDx=0;entryDy=0;fontSize=19;" edge="1" parent="1" source="392" target="-bmkmWvGNsPvscFq14zv-414">
          <mxGeometry relative="1" as="geometry" />
        </mxCell>
        <mxCell id="392" value="判断该点是否被访问过" style="strokeColor=#dddddd;fillColor=#ffffff;shadow=1;strokeWidth=1;rounded=1;absoluteArcSize=1;arcSize=2;labelPosition=center;verticalLabelPosition=middle;align=center;verticalAlign=middle;spacingLeft=0;fontColor=#999999;fontSize=19;whiteSpace=wrap;spacingBottom=2;html=1;" parent="1" vertex="1">
          <mxGeometry x="480" y="180" width="130" height="60" as="geometry" />
        </mxCell>
        <mxCell id="-bmkmWvGNsPvscFq14zv-430" style="edgeStyle=orthogonalEdgeStyle;rounded=0;orthogonalLoop=1;jettySize=auto;html=1;fontSize=19;" edge="1" parent="1" source="-bmkmWvGNsPvscFq14zv-414" target="-bmkmWvGNsPvscFq14zv-415">
          <mxGeometry relative="1" as="geometry" />
        </mxCell>
        <mxCell id="-bmkmWvGNsPvscFq14zv-432" style="edgeStyle=orthogonalEdgeStyle;rounded=0;orthogonalLoop=1;jettySize=auto;html=1;fontSize=19;" edge="1" parent="1" source="-bmkmWvGNsPvscFq14zv-414" target="-bmkmWvGNsPvscFq14zv-428">
          <mxGeometry relative="1" as="geometry" />
        </mxCell>
        <mxCell id="-bmkmWvGNsPvscFq14zv-414" value="创建一个新类，判断该点周围是否有足够的邻居" style="strokeColor=#dddddd;fillColor=#ffffff;shadow=1;strokeWidth=1;rounded=1;absoluteArcSize=1;arcSize=2;labelPosition=center;verticalLabelPosition=middle;align=center;verticalAlign=middle;spacingLeft=0;fontColor=#999999;fontSize=19;whiteSpace=wrap;spacingBottom=2;html=1;" vertex="1" parent="1">
          <mxGeometry x="475" y="300" width="144" height="70" as="geometry" />
        </mxCell>
        <mxCell id="-bmkmWvGNsPvscFq14zv-434" style="edgeStyle=orthogonalEdgeStyle;rounded=0;orthogonalLoop=1;jettySize=auto;html=1;entryX=0.5;entryY=0;entryDx=0;entryDy=0;fontSize=19;" edge="1" parent="1" source="-bmkmWvGNsPvscFq14zv-415" target="-bmkmWvGNsPvscFq14zv-422">
          <mxGeometry relative="1" as="geometry" />
        </mxCell>
        <mxCell id="-bmkmWvGNsPvscFq14zv-415" value="在该聚类中继续拓展" style="strokeColor=#dddddd;fillColor=#ffffff;shadow=1;strokeWidth=1;rounded=1;absoluteArcSize=1;arcSize=2;labelPosition=center;verticalLabelPosition=middle;align=center;verticalAlign=middle;spacingLeft=0;fontColor=#999999;fontSize=19;whiteSpace=wrap;spacingBottom=2;html=1;" vertex="1" parent="1">
          <mxGeometry x="350" y="420" width="130" height="60" as="geometry" />
        </mxCell>
        <mxCell id="-bmkmWvGNsPvscFq14zv-418" style="edgeStyle=orthogonalEdgeStyle;rounded=0;orthogonalLoop=1;jettySize=auto;html=1;entryX=0.5;entryY=0;entryDx=0;entryDy=0;fontSize=19;" edge="1" parent="1" source="-bmkmWvGNsPvscFq14zv-416" target="392">
          <mxGeometry relative="1" as="geometry" />
        </mxCell>
        <mxCell id="-bmkmWvGNsPvscFq14zv-416" value="遍历所有点&amp;nbsp;" style="strokeColor=#dddddd;fillColor=#ffffff;shadow=1;strokeWidth=1;rounded=1;absoluteArcSize=1;arcSize=2;labelPosition=center;verticalLabelPosition=middle;align=center;verticalAlign=middle;spacingLeft=0;fontColor=#999999;fontSize=19;whiteSpace=wrap;spacingBottom=2;html=1;" vertex="1" parent="1">
          <mxGeometry x="480" y="60" width="130" height="60" as="geometry" />
        </mxCell>
        <mxCell id="-bmkmWvGNsPvscFq14zv-417" value="有" style="strokeColor=#dddddd;fillColor=#ffffff;shadow=1;strokeWidth=1;rounded=1;absoluteArcSize=1;arcSize=2;labelPosition=center;verticalLabelPosition=middle;align=center;verticalAlign=middle;spacingLeft=0;fontColor=#999999;fontSize=19;whiteSpace=wrap;spacingBottom=2;html=1;" vertex="1" parent="1">
          <mxGeometry x="420" y="150" width="50" height="30" as="geometry" />
        </mxCell>
        <mxCell id="-bmkmWvGNsPvscFq14zv-421" value="标记该点为同一类，结束拓展" style="strokeColor=#dddddd;fillColor=#ffffff;shadow=1;strokeWidth=1;rounded=1;absoluteArcSize=1;arcSize=2;labelPosition=center;verticalLabelPosition=middle;align=center;verticalAlign=middle;spacingLeft=0;fontColor=#999999;fontSize=19;whiteSpace=wrap;spacingBottom=2;html=1;" vertex="1" parent="1">
          <mxGeometry x="534" y="518.5" width="139" height="65" as="geometry" />
        </mxCell>
        <mxCell id="-bmkmWvGNsPvscFq14zv-433" style="edgeStyle=orthogonalEdgeStyle;rounded=0;orthogonalLoop=1;jettySize=auto;html=1;entryX=0;entryY=0.5;entryDx=0;entryDy=0;fontSize=19;" edge="1" parent="1" source="-bmkmWvGNsPvscFq14zv-422" target="-bmkmWvGNsPvscFq14zv-415">
          <mxGeometry relative="1" as="geometry" />
        </mxCell>
        <mxCell id="-bmkmWvGNsPvscFq14zv-436" style="edgeStyle=orthogonalEdgeStyle;rounded=0;orthogonalLoop=1;jettySize=auto;html=1;entryX=0;entryY=0.5;entryDx=0;entryDy=0;fontSize=19;" edge="1" parent="1" source="-bmkmWvGNsPvscFq14zv-422" target="-bmkmWvGNsPvscFq14zv-421">
          <mxGeometry relative="1" as="geometry" />
        </mxCell>
        <mxCell id="-bmkmWvGNsPvscFq14zv-422" value="新点是否有足够的邻居" style="strokeColor=#dddddd;fillColor=#ffffff;shadow=1;strokeWidth=1;rounded=1;absoluteArcSize=1;arcSize=2;labelPosition=center;verticalLabelPosition=middle;align=center;verticalAlign=middle;spacingLeft=0;fontColor=#999999;fontSize=19;whiteSpace=wrap;spacingBottom=2;html=1;" vertex="1" parent="1">
          <mxGeometry x="350" y="521" width="130" height="60" as="geometry" />
        </mxCell>
        <mxCell id="-bmkmWvGNsPvscFq14zv-423" value="没有" style="strokeColor=#dddddd;fillColor=#ffffff;shadow=1;strokeWidth=1;rounded=1;absoluteArcSize=1;arcSize=2;labelPosition=center;verticalLabelPosition=middle;align=center;verticalAlign=middle;spacingLeft=0;fontColor=#999999;fontSize=19;whiteSpace=wrap;spacingBottom=2;html=1;" vertex="1" parent="1">
          <mxGeometry x="545" y="244" width="52" height="29" as="geometry" />
        </mxCell>
        <mxCell id="-bmkmWvGNsPvscFq14zv-424" value="有" style="strokeColor=#dddddd;fillColor=#ffffff;shadow=1;strokeWidth=1;rounded=1;absoluteArcSize=1;arcSize=2;labelPosition=center;verticalLabelPosition=middle;align=center;verticalAlign=middle;spacingLeft=0;fontColor=#999999;fontSize=19;whiteSpace=wrap;spacingBottom=2;html=1;" vertex="1" parent="1">
          <mxGeometry x="281" y="470" width="43" height="33" as="geometry" />
        </mxCell>
        <mxCell id="-bmkmWvGNsPvscFq14zv-425" value="无" style="strokeColor=#dddddd;fillColor=#ffffff;shadow=1;strokeWidth=1;rounded=1;absoluteArcSize=1;arcSize=2;labelPosition=center;verticalLabelPosition=middle;align=center;verticalAlign=middle;spacingLeft=0;fontColor=#999999;fontSize=19;whiteSpace=wrap;spacingBottom=2;html=1;" vertex="1" parent="1">
          <mxGeometry x="492" y="553" width="30" height="28" as="geometry" />
        </mxCell>
        <mxCell id="-bmkmWvGNsPvscFq14zv-426" value="没有&amp;nbsp;" style="strokeColor=#dddddd;fillColor=#ffffff;shadow=1;strokeWidth=1;rounded=1;absoluteArcSize=1;arcSize=2;labelPosition=center;verticalLabelPosition=middle;align=center;verticalAlign=middle;spacingLeft=0;fontColor=#999999;fontSize=19;whiteSpace=wrap;spacingBottom=2;html=1;" vertex="1" parent="1">
          <mxGeometry x="637" y="351.5" width="47" height="38" as="geometry" />
        </mxCell>
        <mxCell id="-bmkmWvGNsPvscFq14zv-427" value="有" style="strokeColor=#dddddd;fillColor=#ffffff;shadow=1;strokeWidth=1;rounded=1;absoluteArcSize=1;arcSize=2;labelPosition=center;verticalLabelPosition=middle;align=center;verticalAlign=middle;spacingLeft=0;fontColor=#999999;fontSize=19;whiteSpace=wrap;spacingBottom=2;html=1;" vertex="1" parent="1">
          <mxGeometry x="436" y="357" width="29" height="27" as="geometry" />
        </mxCell>
        <mxCell id="-bmkmWvGNsPvscFq14zv-428" value="噪点" style="strokeColor=#dddddd;fillColor=#ffffff;shadow=1;strokeWidth=1;rounded=1;absoluteArcSize=1;arcSize=2;labelPosition=center;verticalLabelPosition=middle;align=center;verticalAlign=middle;spacingLeft=0;fontColor=#999999;fontSize=19;whiteSpace=wrap;spacingBottom=2;html=1;" vertex="1" parent="1">
          <mxGeometry x="615" y="420" width="130" height="60" as="geometry" />
        </mxCell>
      </root>
    </mxGraphModel>
  </diagram>
</mxfile>
